# xmcd CD database file
#
# Track frame offsets:
#	150
#	15859
#	20538
#	71544
#	85863
#	133048
#
# Disc length: 2357 seconds
#
# Revision: 0
# Processed by: cddbd v1.5.2PL0 Copyright (c) Steve Scherf et al.
# Submitted via: CDex 1.51
#
DISCID=3f093306
DTITLE=Krzysztof Zgraja - Laokoon
DYEAR=1981
DGENRE=Jazz
TTITLE0=Luz Blues
TTITLE1=Alex Funky
TTITLE2=La Concha
TTITLE3=W Oczekiwaniu Na... (Waiting For)
TTITLE4=Laokoon
TTITLE5=Fin De Siecle
EXTD=YEAR: 1981
EXTT0=
EXTT1=
EXTT2=
EXTT3=
EXTT4=
EXTT5=
PLAYORDER=
